<svg width="61" height="61" viewBox="0 0 61 61" fill="none" xmlns="http://www.w3.org/2000/svg">
<rect x="0.96106" y="0.958008" width="60.0036" height="60.0121" rx="30.0018" fill="#F4A261"/>
<path fill-rule="evenodd" clip-rule="evenodd" d="M42.8931 42.8994C41.9548 43.8353 40.4344 43.8353 39.4949 42.8994L30.9994 34.4038L22.5039 42.8994C21.5656 43.8353 20.044 43.8353 19.1057 42.8994C18.1674 41.9514 18.1674 40.4396 19.1057 39.4916L27.6012 30.996L19.1057 22.5006C18.1674 21.5647 18.1674 20.0407 19.1057 19.1047C20.044 18.1688 21.5656 18.1688 22.5039 19.1047L30.9994 27.6003L39.4949 19.1047C40.4344 18.1688 41.9548 18.1688 42.8931 19.1047C43.8326 20.0407 43.8326 21.5647 42.8931 22.5006L34.3976 30.996L42.8931 39.4916C43.8326 40.4396 43.8326 41.9514 42.8931 42.8994ZM37.7958 30.996L44.5934 24.2044C46.4689 22.3325 46.4689 19.2848 44.5934 17.4129C42.7155 15.529 39.6725 15.529 37.7958 17.4129L30.9994 24.2044L24.203 17.4129C22.3275 15.529 19.2845 15.529 17.4066 17.4129C15.5311 19.2848 15.5311 22.3325 17.4066 24.2044L24.203 30.996L17.4066 37.7997C15.5311 39.6716 15.5311 42.7194 17.4066 44.5913C19.2845 46.4752 22.3275 46.4752 24.203 44.5913L30.9994 37.7997L37.7958 44.5913C39.6725 46.4752 42.7155 46.4752 44.5934 44.5913C46.4689 42.7194 46.4689 39.6716 44.5934 37.7997L37.7958 30.996Z" fill="white"/>
<path d="M18.5 18.5L43.5 43.5" stroke="white" stroke-width="5"/>
<path d="M18.5 43.5L43.5 18.5" stroke="white" stroke-width="5"/>
</svg>
