<svg width="61" height="61" viewBox="0 0 61 61" fill="none" xmlns="http://www.w3.org/2000/svg">
<rect x="0.96106" y="0.958008" width="60.0036" height="60.0121" rx="30.0018" fill="#aa68e8"/>
<path d="M29.5976 15.6207C30.0296 14.6969 30.2457 14.2349 30.5465 14.0927C30.8077 13.9691 31.1145 13.9691 31.3757 14.0927C31.6765 14.2349 31.8926 14.6969 32.3245 15.6207L35.7654 22.9795L35.7661 22.981C35.8935 23.2531 35.9572 23.3893 36.0559 23.4937C36.1433 23.5862 36.2502 23.6602 36.3694 23.7109C36.5043 23.7682 36.6603 23.7839 36.9723 23.8152L45.3772 24.6609C46.4324 24.7671 46.9599 24.8201 47.1949 25.0489C47.3988 25.2475 47.4936 25.5257 47.4511 25.8008C47.4022 26.1174 47.0081 26.4559 46.2199 27.1331L39.9415 32.5268L39.9406 32.5275C39.7083 32.7271 39.5919 32.8272 39.5182 32.9489C39.4529 33.0568 39.4121 33.1765 39.3985 33.3004C39.383 33.4403 39.4154 33.5866 39.4806 33.8792L41.2342 41.7604C41.4544 42.75 41.5645 43.2447 41.4089 43.5282C41.2736 43.7747 41.0254 43.9466 40.7379 43.993C40.4068 44.0463 39.9472 43.7938 39.0281 43.2884L31.7069 39.263C31.4352 39.1136 31.2994 39.0391 31.155 39.0097C31.0271 38.9839 30.895 38.9839 30.7672 39.0097C30.6228 39.0391 30.4869 39.1136 30.2152 39.263L22.8941 43.2884C21.975 43.7938 21.5154 44.0463 21.1844 43.993C20.8968 43.9466 20.6486 43.7747 20.5134 43.5282C20.3578 43.2447 20.4679 42.75 20.688 41.7604L22.4416 33.8792C22.5067 33.5866 22.5392 33.4403 22.5238 33.3004C22.5101 33.1765 22.4693 33.0568 22.404 32.9489C22.3302 32.827 22.2137 32.7269 21.9807 32.5268L15.7024 27.1331L15.7015 27.1324C14.9139 26.4557 14.52 26.1173 14.471 25.8008C14.4285 25.5257 14.5233 25.2475 14.7273 25.0489C14.9622 24.8201 15.4898 24.7671 16.545 24.6609L24.9499 23.8152C25.2619 23.7839 25.4178 23.7682 25.5527 23.7109C25.672 23.6602 25.7789 23.5862 25.8663 23.4937C25.9651 23.3891 26.029 23.2526 26.1567 22.9795L29.5976 15.6207Z" fill="white"/>
</svg>
